<?xml version="1.0" encoding="utf-8"?>
<!-- Uploaded to: SVG Repo, www.svgrepo.com, Generator: SVG Repo Mixer Tools -->
<svg fill="#000000" width="800px" height="800px" viewBox="0 0 32 32" version="1.1" xmlns="http://www.w3.org/2000/svg">
<title>microsoftteams</title>
<path d="M29.121 20.474v-6.502h-4.686v8.566c0.238 0.241 0.526 0.433 0.847 0.559l0.017 0.006c0.297 0.116 0.642 0.182 1.002 0.182 0.003 0 0.007 0 0.010-0h-0c0.006 0 0.013 0 0.020 0 0.39 0 0.761-0.081 1.097-0.227l-0.018 0.007c0.677-0.289 1.205-0.817 1.486-1.475l0.007-0.018c0.139-0.318 0.22-0.689 0.22-1.079 0-0.007-0-0.014-0-0.021v0.001zM22.561 22.407v-8.435h-6.561v8.128c-0.003 0.686-0.559 1.242-1.244 1.245h-3.368c0.257 1.352 0.948 2.511 1.919 3.355l0.007 0.006c0.957 0.823 2.211 1.325 3.582 1.325 0.015 0 0.029-0 0.044-0h-0.002c0.010 0 0.021 0 0.032 0 0.777 0 1.516-0.162 2.185-0.454l-0.035 0.014c1.356-0.583 2.416-1.64 2.988-2.958l0.014-0.037c0.278-0.633 0.44-1.372 0.44-2.148 0-0.015-0-0.029-0-0.044v0.002zM9.673 13.268h2.812v-2.342h-7.964v2.343h2.812v7.498h2.343zM16.937 3.97c-0.002 0-0.003 0-0.005 0-0.692 0-1.317 0.283-1.767 0.74l-0 0c-0.22 0.224-0.4 0.489-0.528 0.782l-0.007 0.017c-0.125 0.281-0.197 0.608-0.197 0.952 0 0.005 0 0.010 0 0.015v-0.001c0 0.003-0 0.006-0 0.010 0 0.349 0.073 0.68 0.204 0.981l-0.006-0.016c0.133 0.309 0.314 0.574 0.535 0.797l-0-0c0.223 0.222 0.488 0.402 0.782 0.529l0.016 0.006c0.284 0.125 0.615 0.197 0.963 0.197 0.004 0 0.007 0 0.011-0h-0.001c0.004 0 0.009 0 0.014 0 0.344 0 0.672-0.073 0.967-0.204l-0.015 0.006c0.31-0.136 0.574-0.316 0.8-0.535l-0.001 0.001c0.225-0.223 0.407-0.488 0.535-0.782l0.006-0.016c0.125-0.284 0.198-0.615 0.198-0.963 0-0.004 0-0.007-0-0.011v0.001c0-0.004 0-0.009 0-0.014 0-0.344-0.073-0.672-0.204-0.968l0.006 0.015c-0.136-0.31-0.319-0.575-0.542-0.8l0 0c-0.224-0.224-0.488-0.406-0.782-0.535l-0.016-0.006c-0.281-0.125-0.608-0.197-0.952-0.197-0.005 0-0.010 0-0.015 0h0.001zM30.996 13.503v6.97c0 0.008 0 0.017 0 0.027 0 0.649-0.135 1.267-0.378 1.828l0.011-0.030c-0.484 1.13-1.367 2.012-2.466 2.484l-0.030 0.012c-0.53 0.232-1.148 0.366-1.797 0.366-0.009 0-0.018-0-0.027-0h0.001c-0.403-0.001-0.794-0.049-1.169-0.138l0.035 0.007c-0.401-0.091-0.756-0.233-1.081-0.421l0.018 0.010c-0.255 0.824-0.619 1.542-1.083 2.182l0.015-0.021c-0.917 1.27-2.195 2.228-3.683 2.73l-0.053 0.015c-0.702 0.242-1.51 0.381-2.351 0.381-0.007 0-0.014 0-0.022-0h0.001c-0.014 0-0.031 0-0.048 0-0.955 0-1.867-0.183-2.704-0.515l0.050 0.017c-0.869-0.343-1.616-0.808-2.263-1.384l0.008 0.007c-0.653-0.585-1.2-1.272-1.62-2.040l-0.020-0.040c-0.416-0.754-0.713-1.634-0.838-2.568l-0.004-0.039h-7.248c-0.005 0-0.011 0-0.017 0-0.339 0-0.644-0.14-0.863-0.366l-0-0c-0.226-0.218-0.366-0.524-0.366-0.862 0-0.006 0-0.011 0-0.017v0.001-12.506c-0-0.005-0-0.011-0-0.016 0-0.338 0.14-0.644 0.366-0.862l0-0c0.218-0.226 0.524-0.366 0.862-0.366 0.006 0 0.011 0 0.017 0h10.734c-0.268-0.546-0.425-1.188-0.425-1.867 0-0.003 0-0.005 0-0.008v0c-0-0.008-0-0.019-0-0.029 0-0.606 0.126-1.183 0.354-1.705l-0.011 0.027c0.453-1.054 1.276-1.876 2.301-2.318l0.028-0.011c0.504-0.217 1.090-0.344 1.706-0.344s1.202 0.126 1.734 0.355l-0.029-0.011c1.054 0.453 1.876 1.276 2.318 2.301l0.011 0.028c0.217 0.504 0.344 1.090 0.344 1.706s-0.126 1.202-0.355 1.734l0.011-0.029c-0.454 1.053-1.276 1.875-2.301 2.317l-0.028 0.011c-0.494 0.218-1.071 0.345-1.677 0.345-0.010 0-0.020-0-0.030-0h0.002c-0.165 0-0.328-0.011-0.487-0.032l0.019 0.002q-0.235-0.029-0.469-0.072v1.347h13.59c0.002 0 0.004 0 0.006 0 0.773 0 1.399 0.627 1.399 1.399 0 0.002 0 0.004-0 0.007v-0zM26.778 6.474c-0.777 0.002-1.406 0.632-1.406 1.409 0 0.388 0.157 0.739 0.41 0.993l-0-0c0.255 0.255 0.607 0.413 0.996 0.413 0.778 0 1.409-0.631 1.409-1.409 0-0.389-0.158-0.741-0.413-0.996v0c-0.247-0.253-0.591-0.41-0.972-0.41-0.009 0-0.017 0-0.026 0l0.001-0zM26.778 11.16c-0.008 0-0.017 0-0.027 0-0.453 0-0.884-0.094-1.275-0.264l0.021 0.008c-0.786-0.342-1.401-0.957-1.735-1.722l-0.008-0.021c-0.162-0.377-0.256-0.817-0.256-1.278s0.094-0.9 0.264-1.299l-0.008 0.022c0.34-0.79 0.955-1.407 1.722-1.741l0.021-0.008c0.377-0.162 0.817-0.256 1.278-0.256s0.9 0.094 1.299 0.264l-0.022-0.008c0.792 0.34 1.41 0.958 1.741 1.728l0.008 0.021c0.162 0.377 0.256 0.817 0.256 1.278s-0.094 0.9-0.264 1.299l0.008-0.022c-0.342 0.788-0.96 1.404-1.728 1.735l-0.021 0.008c-0.371 0.162-0.803 0.256-1.257 0.256-0.006 0-0.012-0-0.019-0h0.001z"></path>
</svg>