<svg xmlns="http://www.w3.org/2000/svg" width="500" viewBox="0 0 375 375" height="500" version="1.0"><defs><clipPath id="d"><path d="M.281.559h9.36v9.12H.28zm0 0"/></clipPath><clipPath id="c"><path d="M0 0h10v10H0z"/></clipPath><clipPath id="f"><path d="M136 168h10.152v10H136zm0 0"/></clipPath><clipPath id="h"><path d="M1 .48h9.152v9.36H1zm0 0"/></clipPath><clipPath id="g"><path d="M0 0h11v10H0z"/></clipPath><clipPath id="k"><path d="M.281.121h9.36v9.84H.28zm0 0"/></clipPath><clipPath id="j"><path d="M0 0h10v10H0z"/></clipPath><clipPath id="m"><path d="M116 189h10v9.383h-10zm0 0"/></clipPath><clipPath id="o"><path d="M1 .36h9v9.023H1zm0 0"/></clipPath><clipPath id="n"><path d="M0 0h10v10H0z"/></clipPath><clipPath id="r"><path d="M.238.602H9.84V9.96H.238zm0 0"/></clipPath><clipPath id="q"><path d="M0 0h10v10H0z"/></clipPath><clipPath id="t"><path d="M96.652 169H106v10h-9.348zm0 0"/></clipPath><clipPath id="v"><path d="M.652.2H9.84V9H.652zm0 0"/></clipPath><clipPath id="u"><path d="M0 0h10v10H0z"/></clipPath><clipPath id="y"><path d="M.238 1H9.36v8.68H.24zm0 0"/></clipPath><clipPath id="x"><path d="M0 0h10v10H0z"/></clipPath><mask id="b"><g filter="url(#a)"><path fill-opacity=".25" d="M-37.5-37.5h450v450h-450z"/></g></mask><mask id="e"><g filter="url(#a)"><path fill-opacity=".4" d="M-37.5-37.5h450v450h-450z"/></g></mask><mask id="i"><g filter="url(#a)"><path fill-opacity=".5" d="M-37.5-37.5h450v450h-450z"/></g></mask><mask id="l"><g filter="url(#a)"><path fill-opacity=".6" d="M-37.5-37.5h450v450h-450z"/></g></mask><mask id="p"><g filter="url(#a)"><path fill-opacity=".7" d="M-37.5-37.5h450v450h-450z"/></g></mask><mask id="s"><g filter="url(#a)"><path fill-opacity=".8" d="M-37.5-37.5h450v450h-450z"/></g></mask><mask id="w"><g filter="url(#a)"><path fill-opacity=".9" d="M-37.5-37.5h450v450h-450z"/></g></mask><filter x="0%" y="0%" width="100%" height="100%" id="a"><feColorMatrix values="0 0 0 0 1 0 0 0 0 1 0 0 0 0 1 0 0 0 1 0" color-interpolation-filters="sRGB"/></filter></defs><path fill="#5e17eb" d="M125.555 153.29c0 .276-.028.554-.082.827a4.194 4.194 0 01-.637 1.54 4.23 4.23 0 01-1.914 1.57 4.262 4.262 0 01-4.645-.926 4.659 4.659 0 01-.53-.645 4.448 4.448 0 01-.392-.738 4.033 4.033 0 01-.242-.8 4.222 4.222 0 010-1.661c.055-.277.133-.543.242-.8a4.46 4.46 0 01.391-.739 4.23 4.23 0 011.18-1.176c.23-.156.476-.285.734-.394a4.232 4.232 0 012.465-.242c.273.054.54.136.797.242a4.23 4.23 0 012.309 2.309 4.232 4.232 0 01.324 1.633zm0 0"/><g mask="url(#b)"><g clip-path="url(#c)" transform="translate(131 154)"><g clip-path="url(#d)"><path fill="#5e17eb" d="M9.016 5.137A4.232 4.232 0 018.69 6.77a4.281 4.281 0 01-.925 1.382 4.44 4.44 0 01-.645.532c-.234.152-.48.285-.738.39a4.291 4.291 0 01-3.262 0 4.448 4.448 0 01-.738-.39 4.659 4.659 0 01-.645-.532A4.281 4.281 0 01.812 6.77 4.232 4.232 0 01.57 4.305c.055-.273.137-.538.243-.796a4.176 4.176 0 01.925-1.383A4.194 4.194 0 013.922.957a4.232 4.232 0 011.664 0c.273.055.539.137.797.242a4.194 4.194 0 011.383.926c.199.195.375.41.53.645.157.23.286.476.395.738a4.291 4.291 0 01.324 1.629zm0 0"/></g></g></g><g mask="url(#e)" clip-path="url(#f)"><g clip-path="url(#g)" transform="translate(136 168)"><g clip-path="url(#h)"><path fill="#5e17eb" d="M10.027 5.254c0 .281-.027.559-.082.832a4.194 4.194 0 01-.637 1.54 4.23 4.23 0 01-1.176 1.176c-.23.155-.476.284-.734.393a4.232 4.232 0 01-2.465.242 4.496 4.496 0 01-.8-.242 4.281 4.281 0 01-2.547-3.11 4.232 4.232 0 010-1.663c.055-.274.133-.54.242-.797a4.16 4.16 0 01.395-.738A4.23 4.23 0 013.399 1.71c.23-.156.476-.285.734-.395a4.232 4.232 0 012.465-.242c.273.055.539.137.8.242a4.282 4.282 0 012.547 3.106c.055.277.082.555.082.832zm0 0"/></g></g></g><g mask="url(#i)"><g clip-path="url(#j)" transform="translate(131 183)"><g clip-path="url(#k)"><path fill="#5e17eb" d="M9.094 5.047a4.291 4.291 0 01-.324 1.629 3.936 3.936 0 01-.395.738 4.02 4.02 0 01-.531.645c-.196.199-.41.375-.645.53a4.06 4.06 0 01-.738.395A4.291 4.291 0 014 9.226a4.194 4.194 0 01-2.184-1.168 4.16 4.16 0 01-.922-1.383 4.088 4.088 0 01-.247-.796 4.291 4.291 0 010-1.664 4.07 4.07 0 01.247-.8 4.263 4.263 0 01.921-1.384c.2-.195.414-.375.645-.531.234-.152.48-.285.738-.39A3.86 3.86 0 014 .866a4.232 4.232 0 011.664 0c.274.051.54.133.797.242a4.3 4.3 0 01.738.391 4.24 4.24 0 011.176 1.18c.156.23.29.476.395.734a4.232 4.232 0 01.324 1.633zm0 0"/></g></g></g><g mask="url(#l)" clip-path="url(#m)"><g clip-path="url(#n)" transform="translate(116 189)"><g clip-path="url(#o)"><path fill="#5e17eb" d="M9.734 4.84a4.232 4.232 0 01-.324 1.633 4.027 4.027 0 01-.394.734 4.24 4.24 0 01-1.176 1.18 4.16 4.16 0 01-.738.39 4.291 4.291 0 01-3.262 0 4.263 4.263 0 01-1.383-.922 4.23 4.23 0 01-.922-1.382 4.125 4.125 0 01-.246-.801 4.548 4.548 0 01-.078-.832c0-.281.027-.555.078-.832.055-.274.137-.54.246-.797a4.16 4.16 0 01.922-1.387A4.446 4.446 0 013.84.902 4.232 4.232 0 016.305.66c.273.055.539.133.797.242.261.106.507.239.738.395a4.216 4.216 0 011.176 1.176c.156.23.289.476.394.738a4.262 4.262 0 01.324 1.629zm0 0"/></g></g></g><g mask="url(#p)"><g clip-path="url(#q)" transform="translate(102 183)"><g clip-path="url(#r)"><path fill="#5e17eb" d="M9.273 5.16c0 .277-.027.555-.082.828a4.194 4.194 0 01-.637 1.54A4.174 4.174 0 017.38 8.702c-.23.156-.477.285-.734.395a4.232 4.232 0 01-2.465.242 4.496 4.496 0 01-.801-.242 4.282 4.282 0 01-2.547-3.11 4.222 4.222 0 010-1.66 4.194 4.194 0 01.637-1.54 4.23 4.23 0 011.176-1.176c.23-.155.476-.284.734-.393A4.232 4.232 0 015.844.977c.273.054.539.136.8.242a4.281 4.281 0 012.547 3.11c.055.273.082.55.082.831zm0 0"/></g></g></g><g mask="url(#s)" clip-path="url(#t)"><g clip-path="url(#u)" transform="translate(96 169)"><g clip-path="url(#v)"><path fill="#5e17eb" d="M9.176 4.621a4.088 4.088 0 01-.324 1.629 4.448 4.448 0 01-.391.738 4.02 4.02 0 01-.531.645 4.282 4.282 0 01-1.383.926 4.232 4.232 0 01-2.465.242 4.362 4.362 0 01-.797-.242 4.176 4.176 0 01-1.383-.926A4.194 4.194 0 01.976 6.25a4.291 4.291 0 010-3.262 4.194 4.194 0 01.926-1.383c.196-.199.41-.375.645-.53.23-.157.476-.286.738-.395a4.291 4.291 0 012.46-.242c.275.054.544.136.802.242a4.281 4.281 0 011.383.925c.199.2.375.415.53.645a4.448 4.448 0 01.638 1.54c.054.272.078.55.078.831zm0 0"/></g></g></g><g mask="url(#w)"><g clip-path="url(#x)" transform="translate(102 154)"><g clip-path="url(#y)"><path fill="#5e17eb" d="M9.191 5.328a4.232 4.232 0 01-.324 1.633 4.282 4.282 0 01-3.11 2.547 4.232 4.232 0 01-1.66 0 4.194 4.194 0 01-1.54-.637 4.23 4.23 0 01-1.176-1.176 4.282 4.282 0 01-.393-.734 4.232 4.232 0 01-.242-2.465c.055-.273.137-.539.242-.8a4.282 4.282 0 013.11-2.548 4.222 4.222 0 011.66 0c.277.055.543.133.8.243.258.105.505.238.739.394a4.23 4.23 0 011.176 1.176c.156.23.285.476.394.734a4.232 4.232 0 01.324 1.633zm0 0"/></g></g></g><path d="M75.112 187.537c-2.781 0-5.324-.687-7.625-2.062-2.305-1.383-4.117-3.27-5.437-5.657-1.325-2.394-1.985-5.035-1.985-7.922 0-2.851.66-5.468 1.985-7.843 1.32-2.383 3.132-4.27 5.437-5.657 2.3-1.394 4.844-2.093 7.625-2.093 1.977 0 3.688.261 5.125.781 1.445.523 2.91 1.375 4.39 2.562.313.243.52.485.626.735.101.242.156.531.156.875 0 .523-.188.95-.563 1.281a1.9 1.9 0 01-1.312.5c-.492 0-.945-.164-1.36-.5-1.062-.906-2.105-1.562-3.124-1.969-1.012-.406-2.325-.609-3.938-.609-2.023 0-3.887.539-5.594 1.61-1.699 1.062-3.054 2.511-4.062 4.343-1 1.836-1.5 3.828-1.5 5.984 0 2.188.5 4.196 1.5 6.016 1.008 1.813 2.363 3.258 4.062 4.328a10.38 10.38 0 005.594 1.594c2.5 0 4.89-.86 7.172-2.578.445-.313.879-.469 1.297-.469.488 0 .894.18 1.219.531.332.356.5.813.5 1.375 0 .555-.211 1.04-.625 1.453-2.813 2.262-6 3.391-9.563 3.391zm85.599-.391c-.574 0-1.055-.19-1.437-.578-.387-.394-.579-.879-.579-1.453V158.71c0-.594.192-1.078.579-1.453.382-.375.863-.563 1.437-.563h7.063c2.937 0 5.55.653 7.843 1.953a13.69 13.69 0 015.344 5.391c1.27 2.305 1.906 4.922 1.906 7.86 0 2.937-.636 5.562-1.906 7.874a13.744 13.744 0 01-5.344 5.422c-2.293 1.305-4.906 1.953-7.843 1.953zm7.063-3.593c2.156 0 4.082-.489 5.78-1.469 1.708-.988 3.036-2.375 3.985-4.156.957-1.782 1.438-3.79 1.438-6.032 0-2.238-.48-4.238-1.438-6-.949-1.77-2.277-3.148-3.984-4.14-1.7-.988-3.625-1.485-5.781-1.485h-5.032v23.282zm23.474 3.593c-.574 0-1.055-.19-1.437-.578-.387-.394-.578-.879-.578-1.453V158.71c0-.594.19-1.078.578-1.453.382-.375.863-.563 1.437-.563h17.64c.595 0 1.071.18 1.438.532.364.343.547.804.547 1.375 0 .543-.183.984-.547 1.328-.367.336-.843.5-1.437.5h-15.61v9.484h11.204c.562 0 1.03.18 1.406.531.383.344.578.793.578 1.344 0 .543-.195.992-.578 1.344-.375.344-.844.515-1.406.515h-11.204v9.75h15.61c.594 0 1.07.172 1.437.516.364.336.547.777.547 1.328 0 .574-.183 1.04-.547 1.39-.367.345-.843.516-1.437.516zm45.05-3.125c.258.418.39.852.39 1.297 0 .524-.179.961-.53 1.313-.344.344-.82.515-1.422.515-.75 0-1.336-.32-1.75-.968l-6.703-10.766h-5.704v9.703c0 .574-.187 1.059-.562 1.453-.375.387-.867.578-1.469.578-.574 0-1.055-.19-1.437-.578-.387-.394-.578-.879-.578-1.453V158.71c0-.594.19-1.078.578-1.453.382-.375.863-.563 1.437-.563h7.031c1.914 0 3.633.403 5.157 1.203 1.52.805 2.703 1.934 3.547 3.391.851 1.461 1.28 3.125 1.28 5 0 1.844-.468 3.48-1.405 4.906-.938 1.43-2.215 2.508-3.829 3.235zm-10.719-12.359c1.758 0 3.211-.5 4.36-1.5 1.144-1 1.719-2.289 1.719-3.875 0-1.719-.575-3.125-1.72-4.219-1.148-1.093-2.6-1.64-4.359-1.64h-5v11.234zm44.071-14.969c.57 0 1.05.2 1.437.594.383.387.578.86.578 1.422v26.406c0 .574-.203 1.059-.61 1.453a1.951 1.951 0 01-1.406.578c-.574 0-1.058-.19-1.453-.578-.387-.394-.578-.879-.578-1.453V165.74l-9.437 19.219c-.45.68-1.032 1.016-1.75 1.016-.868 0-1.493-.399-1.875-1.204l-9.329-18.687v19.031c0 .574-.199 1.059-.593 1.453-.387.387-.868.578-1.438.578-.574 0-1.055-.19-1.437-.578-.387-.394-.578-.879-.578-1.453V158.71c0-.563.191-1.035.578-1.422.382-.394.863-.594 1.437-.594.781 0 1.38.368 1.797 1.094l11.594 23.203 11.265-23.203c.414-.726 1.016-1.094 1.797-1.094zm11.844 30.453c-.574 0-1.054-.19-1.437-.578-.387-.394-.578-.879-.578-1.453V158.71c0-.594.191-1.078.578-1.453.383-.375.863-.563 1.437-.563h17.64c.595 0 1.071.18 1.438.532.364.343.547.804.547 1.375 0 .543-.183.984-.547 1.328-.367.336-.843.5-1.437.5h-15.61v9.484h11.204c.562 0 1.03.18 1.406.531.383.344.578.793.578 1.344 0 .543-.195.992-.578 1.344-.375.344-.844.515-1.406.515h-11.204v9.75h15.61c.594 0 1.07.172 1.437.516.364.336.547.777.547 1.328 0 .574-.183 1.04-.547 1.39-.367.345-.843.516-1.437.516zm47.003-3.281c.282.418.422.86.422 1.328 0 .524-.172.98-.515 1.375-.336.387-.782.578-1.344.578-.656 0-1.18-.242-1.563-.734l-8.468-11.75-8.97 11.906a1.913 1.913 0 01-1.405.578c-.575 0-1.024-.18-1.344-.546-.324-.364-.485-.805-.485-1.329 0-.52.157-.988.47-1.406l9.077-12.078-8.578-11.906c-.261-.332-.39-.735-.39-1.203 0-.54.164-1.004.5-1.39.343-.395.8-.595 1.375-.595.675 0 1.156.196 1.437.578l8.39 11.625 8.735-11.625c.363-.382.844-.578 1.438-.578.55 0 .988.184 1.312.547.32.367.484.805.484 1.313 0 .449-.14.89-.421 1.328l-8.891 11.86zm-167.723 23.008a.44.44 0 01.343.14.472.472 0 01.141.344.483.483 0 01-.14.36.46.46 0 01-.344.124h-2.141v6.344a.513.513 0 01-.156.375.546.546 0 01-.375.14.532.532 0 01-.375-.14.532.532 0 01-.14-.375v-6.344h-2.173a.485.485 0 01-.344-.125.504.504 0 01-.125-.36c0-.132.04-.25.125-.343a.466.466 0 01.344-.14zm2.149 7.827a.532.532 0 01-.375-.14.532.532 0 01-.14-.375v-6.781a.507.507 0 01.515-.531h4.531c.156 0 .281.046.375.14.094.094.14.215.14.36 0 .136-.046.25-.14.343a.531.531 0 01-.375.125h-4v2.438h2.875c.145 0 .266.047.36.14a.43.43 0 01.14.329.483.483 0 01-.14.359.51.51 0 01-.36.125h-2.875v2.5h4a.51.51 0 01.375.14c.094.086.14.2.14.344a.483.483 0 01-.14.36.531.531 0 01-.375.125zm9.993.094c-.711 0-1.36-.175-1.953-.53a3.85 3.85 0 01-1.406-1.438c-.336-.614-.5-1.297-.5-2.047 0-.727.164-1.395.5-2a3.865 3.865 0 011.406-1.453 3.667 3.667 0 011.953-.547c.508 0 .945.07 1.312.203.375.137.754.355 1.141.656a.487.487 0 01.203.406.45.45 0 01-.156.344.467.467 0 01-.328.125.583.583 0 01-.36-.125 2.921 2.921 0 00-.796-.515c-.262-.102-.602-.157-1.016-.157-.523 0-1 .14-1.438.422a2.97 2.97 0 00-1.046 1.11c-.25.468-.375.98-.375 1.53 0 .563.125 1.079.375 1.548.257.468.609.843 1.046 1.125a2.65 2.65 0 001.438.406c.644 0 1.258-.223 1.844-.672a.648.648 0 01.343-.11c.125 0 .227.048.313.141.082.086.125.2.125.344a.523.523 0 01-.172.375 3.83 3.83 0 01-2.453.86zm4.795-.094a.532.532 0 01-.375-.14.532.532 0 01-.14-.375v-6.781a.507.507 0 01.515-.531c.156 0 .281.054.375.156a.489.489 0 01.156.375v2.875h4.641v-2.875a.507.507 0 01.531-.531.51.51 0 01.5.531v6.781a.532.532 0 01-.14.375.489.489 0 01-.36.14.558.558 0 01-.39-.14.532.532 0 01-.141-.375v-2.984h-4.64v2.984a.507.507 0 01-.531.516zm8.721 0a.532.532 0 01-.375-.14.532.532 0 01-.14-.375v-6.781a.507.507 0 01.515-.531c.07 0 .144.023.219.062.07.031.128.078.171.14l4.375 5.798v-5.47a.507.507 0 01.516-.53c.145 0 .266.054.36.156a.489.489 0 01.156.375v6.781a.513.513 0 01-.157.375.489.489 0 01-.359.14.658.658 0 01-.234-.046.293.293 0 01-.157-.14l-4.375-5.798v5.469a.532.532 0 01-.14.375.507.507 0 01-.375.14zm11.419.094c-.78 0-1.476-.164-2.078-.5a3.593 3.593 0 01-1.406-1.421c-.336-.614-.5-1.313-.5-2.094 0-.77.164-1.457.5-2.063.332-.613.8-1.086 1.406-1.422.602-.343 1.297-.515 2.078-.515.758 0 1.442.172 2.047.515.602.336 1.07.809 1.406 1.422.344.606.516 1.293.516 2.063 0 .781-.172 1.48-.516 2.094a3.645 3.645 0 01-1.406 1.421c-.594.336-1.277.5-2.047.5zm0-.937c.563 0 1.067-.133 1.516-.406.457-.27.812-.641 1.062-1.11.258-.468.391-.988.391-1.562a3.21 3.21 0 00-.39-1.563 2.741 2.741 0 00-1.047-1.093 2.922 2.922 0 00-1.532-.407c-.586 0-1.101.137-1.547.407a2.805 2.805 0 00-1.062 1.093c-.25.469-.375.992-.375 1.563 0 .574.125 1.094.375 1.562.258.469.613.84 1.062 1.11a2.96 2.96 0 001.547.406zm6.112.843a.532.532 0 01-.375-.14.532.532 0 01-.14-.375v-6.781c0-.145.047-.27.14-.375a.513.513 0 01.735 0c.101.105.156.23.156.375v6.25h3.625c.144 0 .27.054.375.156a.526.526 0 010 .75.546.546 0 01-.375.14zm9.537.094c-.78 0-1.476-.164-2.078-.5a3.593 3.593 0 01-1.406-1.421c-.336-.614-.5-1.313-.5-2.094 0-.77.164-1.457.5-2.063a3.5 3.5 0 011.406-1.422c.602-.343 1.297-.515 2.079-.515.757 0 1.441.172 2.046.515.602.336 1.07.809 1.407 1.422.343.606.515 1.293.515 2.063 0 .781-.172 1.48-.515 2.094a3.645 3.645 0 01-1.407 1.421c-.593.336-1.277.5-2.046.5zm0-.937c.563 0 1.067-.133 1.516-.406.457-.27.813-.641 1.063-1.11.257-.468.39-.988.39-1.562a3.21 3.21 0 00-.39-1.563 2.741 2.741 0 00-1.047-1.093 2.92 2.92 0 00-1.531-.407c-.586 0-1.102.137-1.547.407a2.8 2.8 0 00-1.063 1.093c-.25.469-.375.992-.375 1.563 0 .574.125 1.094.375 1.562.258.469.613.84 1.063 1.11.457.273.972.406 1.547.406zm11.206-3.219c.145 0 .266.055.36.156a.489.489 0 01.156.375v2.391a.464.464 0 01-.172.375c-.7.574-1.516.86-2.453.86-.711 0-1.36-.176-1.953-.532a3.85 3.85 0 01-1.407-1.437c-.335-.614-.5-1.297-.5-2.047 0-.727.165-1.395.5-2a3.865 3.865 0 011.407-1.453 3.667 3.667 0 011.953-.547c.508 0 .945.07 1.312.203.375.137.754.355 1.141.656a.487.487 0 01.203.406c0 .137-.055.25-.156.344a.491.491 0 01-.344.125.557.557 0 01-.344-.125 2.921 2.921 0 00-.797-.515c-.261-.102-.601-.157-1.015-.157-.524 0-1 .14-1.438.422-.437.274-.789.64-1.047 1.11-.25.468-.375.98-.375 1.53 0 .563.125 1.079.375 1.548.258.468.61.843 1.047 1.125a2.65 2.65 0 001.438.406c.562 0 1.101-.172 1.625-.516v-1.781h-1.39a.531.531 0 01-.376-.125.414.414 0 01-.14-.328c0-.133.046-.242.14-.328a.507.507 0 01.375-.14zm7.389-3.765c.125 0 .227.046.313.14a.51.51 0 01.125.344.615.615 0 01-.094.328l-2.703 4.156v2.344a.513.513 0 01-.156.375.489.489 0 01-.36.14.515.515 0 01-.36-.14.498.498 0 01-.155-.375v-2.344l-2.672-4.156a.581.581 0 01-.11-.312.46.46 0 01.157-.36.532.532 0 01.375-.14.39.39 0 01.25.078c.07.043.14.117.203.218l2.343 3.72 2.391-3.766a.504.504 0 01.453-.25zm5.408 5.218a1.23 1.23 0 01-.891-.36 1.195 1.195 0 01-.36-.89c0-.226.055-.437.172-.625a1.21 1.21 0 01.454-.453c.195-.113.406-.172.625-.172.218 0 .421.059.609.172.195.117.352.274.469.469.113.187.172.39.172.61 0 .218-.059.429-.172.624-.106.2-.258.356-.453.469a1.258 1.258 0 01-.625.156zm8.348 2.703a3.586 3.586 0 01-1.766-.437c-.53-.29-.898-.676-1.093-1.156a.47.47 0 01-.047-.188.36.36 0 01.11-.265.499.499 0 01.296-.157.255.255 0 01.094-.015.53.53 0 01.297.093c.101.063.18.153.234.266.113.262.348.48.703.656.352.18.742.266 1.172.266.5 0 .922-.113 1.266-.344.351-.226.53-.547.53-.953 0-.375-.151-.695-.452-.969-.293-.27-.735-.437-1.328-.5-.836-.07-1.493-.312-1.97-.718-.468-.407-.702-.91-.702-1.516 0-.426.117-.797.36-1.11a2.26 2.26 0 011-.703 3.97 3.97 0 011.437-.25c.57 0 1.054.118 1.453.344.394.23.726.563 1 1a.666.666 0 01.125.36c0 .148-.07.265-.203.359a.436.436 0 01-.266.078.548.548 0 01-.281-.078.448.448 0 01-.188-.203 1.995 1.995 0 00-.687-.688c-.274-.156-.61-.234-1.016-.234-.512 0-.922.101-1.234.297a.958.958 0 00-.469.86c0 .343.133.636.406.874.282.23.785.383 1.516.453.8.086 1.422.328 1.86.735.437.398.656.93.656 1.593 0 .48-.133.891-.391 1.235a2.317 2.317 0 01-1.031.765c-.43.164-.891.25-1.391.25zm8.029 0c-.781 0-1.476-.164-2.078-.5a3.593 3.593 0 01-1.406-1.421c-.336-.614-.5-1.313-.5-2.094 0-.77.164-1.457.5-2.063.332-.613.8-1.086 1.406-1.422.602-.343 1.297-.515 2.078-.515.758 0 1.441.172 2.047.515.602.336 1.07.809 1.406 1.422.344.606.516 1.293.516 2.063 0 .781-.172 1.48-.516 2.094a3.645 3.645 0 01-1.406 1.421c-.594.336-1.277.5-2.047.5zm0-.937c.563 0 1.066-.133 1.516-.406.457-.27.812-.641 1.062-1.11.258-.468.39-.988.39-1.562 0-.57-.132-1.094-.39-1.563a2.741 2.741 0 00-1.047-1.093 2.914 2.914 0 00-1.53-.407c-.587 0-1.102.137-1.548.407a2.805 2.805 0 00-1.062 1.093c-.25.469-.375.992-.375 1.563 0 .574.125 1.094.375 1.562.258.469.613.84 1.062 1.11.457.273.973.406 1.547.406zm5.487.843a.532.532 0 01-.375-.14.532.532 0 01-.14-.375v-6.781a.507.507 0 01.515-.531h4.531a.46.46 0 01.36.14c.093.094.14.215.14.36 0 .136-.047.25-.14.343-.086.086-.203.125-.36.125h-4.015v2.438h2.875c.144 0 .265.047.359.14a.415.415 0 01.156.329.467.467 0 01-.156.359.51.51 0 01-.36.125h-2.874v2.953a.513.513 0 01-.157.375.489.489 0 01-.359.14zm11.351-7.827a.44.44 0 01.344.14.47.47 0 01.14.344.483.483 0 01-.14.36.46.46 0 01-.344.124h-2.14v6.344a.513.513 0 01-.156.375.546.546 0 01-.375.14.532.532 0 01-.375-.14.532.532 0 01-.141-.375v-6.344h-2.172a.485.485 0 01-.344-.125.504.504 0 01-.125-.36c0-.132.04-.25.125-.343a.466.466 0 01.344-.14zm9.525 0c.125 0 .219.042.281.125.07.085.11.195.11.328 0 .093-.012.187-.032.28l-2.015 6.673a.866.866 0 01-.22.312.456.456 0 01-.312.11.484.484 0 01-.312-.11.676.676 0 01-.203-.297l-1.485-5.78-1.515 5.765a.866.866 0 01-.22.312.437.437 0 01-.296.11.512.512 0 01-.328-.11.581.581 0 01-.203-.297l-2.016-6.687a1.15 1.15 0 01-.031-.281c0-.133.035-.243.11-.328a.427.427 0 01.312-.125c.125 0 .226.039.312.109a.53.53 0 01.203.281l1.641 5.719 1.516-5.656a.462.462 0 01.172-.235.554.554 0 01.64-.016.354.354 0 01.172.25l1.531 5.688 1.672-5.797a.406.406 0 01.172-.25.554.554 0 01.344-.093zm7.344 7.093c.04.094.063.168.063.219a.513.513 0 01-.156.375.546.546 0 01-.375.14.548.548 0 01-.282-.077.444.444 0 01-.187-.25l-.563-1.391h-3.593l-.578 1.39a.533.533 0 01-.204.25.51.51 0 01-.28.079.454.454 0 01-.36-.157.515.515 0 01-.14-.359c0-.07.015-.148.046-.234l2.813-6.72c.093-.237.253-.358.484-.358.238 0 .406.12.5.359zm-4.75-1.843h2.891l-1.422-3.579zm11.023 1.781c.07.105.11.215.11.328 0 .137-.047.25-.14.344a.531.531 0 01-.376.125.484.484 0 01-.437-.25l-1.735-2.766h-1.453v2.5a.507.507 0 01-.531.516.532.532 0 01-.375-.141.532.532 0 01-.14-.375v-6.781a.507.507 0 01.515-.531h1.812c.489 0 .926.105 1.313.312.394.21.703.5.922.875a2.5 2.5 0 01.328 1.281c0 .48-.121.903-.36 1.266a2.27 2.27 0 01-.984.828zm-2.75-3.172c.446 0 .817-.129 1.11-.39.3-.259.453-.594.453-1 0-.438-.152-.798-.453-1.079-.293-.281-.664-.422-1.11-.422h-1.28v2.89zm4.516 3.968a.532.532 0 01-.375-.14.532.532 0 01-.14-.375v-6.781a.507.507 0 01.515-.531h4.531c.156 0 .281.046.375.14.094.094.14.215.14.36 0 .136-.046.25-.14.343a.531.531 0 01-.375.125h-4v2.438h2.875c.144 0 .266.047.36.14a.43.43 0 01.14.329.483.483 0 01-.14.359.51.51 0 01-.36.125h-2.875v2.5h4a.51.51 0 01.375.14c.094.086.14.2.14.344a.483.483 0 01-.14.36.531.531 0 01-.375.125zm0 0" fill="#545454"/></svg>