<svg xmlns="http://www.w3.org/2000/svg" width="500" viewBox="0 0 375 375" height="500" version="1.0"><defs><clipPath id="a"><path d="M122.324 113.648H251V261H122.324zm0 0"/></clipPath></defs><g clip-path="url(#a)"><path fill="#660092" d="M182.07 146.852c1.121 1.921 2.809 17.046 3.246 20.8l-13.203-.109c.563-2.176 1.649-3.356 1.867-5.766-1.867.489-8.523 2.754-9.863 2.012zm-8.254 14.835zm0 0zm-51.425-11.261l-.04 64.14c4.481-3.43 9.266-6.875 13.731-10.375 2.41-1.886 4.566-3.714 6.98-5.546 2.286-1.723 4.86-4.047 7.11-5.297l-8.07 18.859c6.054-3.809 27.87-18.117 33.511-19.71l-1.797 7c2.684-.29 10.555-3.685 16.922-6.169 9.356-3.625 9.973-3.953 19.438-1.14l20.258 6.039c4.261 1.359 6.707 4.37 2.699 7.707-2.719 2.285-6.817 5.347-8.574 5.332-8.454-.09-46.79-1.07-51.176.886.27.184.09.13.96.528.509.218.798.308 1.34.507 2.087.708 5.95 1.594 7.055 2.54-1.922 3.027-19.62 29.195-20.492 31.425 3.121 1.18 17.684 10.102 21.98 12.532 2.973 1.668 5.965-1.434 11.098-4.317l45.57-26.293c11.754-6.785 8.942-3.101 8.942-18.48-1.941 2.793-4.281 5.601-7.816 8.289l-30.032 17.39c-6.816 3.934-13.363 7.723-20.129 11.606-7.976 4.586-3.605 4.223-17.804-3.555-.418-.238-.782-.418-1.145-.652l-.672-.547c2.14-3.535 11.59-14.305 17.5-20.02 2.54-2.464 3.176-3.644 6.547-3.878 6.512-.438 23.54-.239 28.309-.344 8.558-.184 21.886-12.696 25.207-21.219-5.008-1.578-12.621-6.074-17.918-8.488-10.281-4.696-9.32-2.738-13.602-13.238-1.883-4.641-5.84-6.02-11.261-8.868-1.778-.941-3.008-1.285-3.715-2.992-1.778-4.351-2.575-18.785-2.793-24.137-7.692 2.559-8.305 4.192-9.395 11.68-2.031-6.309-3.972-12.476-5.656-18.894-2.324 1.27-5.352 4.117-7.473 5.855l-47.238 38.465c-.617-3.574-.238-16.723-.238-21.254 0-1.453 1.797-1.832 2.976-2.52l24.407-14.054c3.39-1.922 26.82-15.852 27.855-15.961 1.523-.18 35.977 20.222 41.89 23.648l14.036 7.871v31.899l8.086 3.933.074-40.183c-1.524-1.38-5.766-3.54-7.688-4.625a297.672 297.672 0 01-7.925-4.59c-5.332-3.191-10.625-6.2-16.141-9.356-3.336-1.906-31.262-18.207-31.988-18.207l-47.856 27.403c-2.758 1.648-14.453 8.086-15.847 9.375zm0 0" fill-rule="evenodd"/></g></svg>