<svg id="visual" viewBox="0 0 900 600" width="900" height="600" xmlns="http://www.w3.org/2000/svg" xmlns:xlink="http://www.w3.org/1999/xlink" version="1.1"><rect x="0" y="0" width="900" height="600" fill="#140021"></rect><path d="M522 0L434 0L434 86L348 86L348 171L445 171L445 257L407 257L407 343L412 343L412 429L474 429L474 514L345 514L345 600L0 600L0 514L0 514L0 429L0 429L0 343L0 343L0 257L0 257L0 171L0 171L0 86L0 86L0 0L0 0Z" fill="#9900ff"></path><path d="M245 0L219 0L219 86L296 86L296 171L369 171L369 257L278 257L278 343L329 343L329 429L225 429L225 514L274 514L274 600L0 600L0 514L0 514L0 429L0 429L0 343L0 343L0 257L0 257L0 171L0 171L0 86L0 86L0 0L0 0Z" fill="#7700c6"></path><path d="M141 0L146 0L146 86L96 86L96 171L216 171L216 257L147 257L147 343L182 343L182 429L197 429L197 514L152 514L152 600L0 600L0 514L0 514L0 429L0 429L0 343L0 343L0 257L0 257L0 171L0 171L0 86L0 86L0 0L0 0Z" fill="#560090"></path></svg>